<mxfile host="65bd71144e">
    <diagram id="TKS4wEM9Ur7Q1tv_GO6l" name="Page-1">
        <mxGraphModel dx="1739" dy="1044" grid="1" gridSize="10" guides="1" tooltips="1" connect="1" arrows="1" fold="1" page="1" pageScale="1" pageWidth="1100" pageHeight="850" math="0" shadow="0">
            <root>
                <mxCell id="0"/>
                <mxCell id="1" parent="0"/>
                <mxCell id="78" value="" style="rounded=0;whiteSpace=wrap;html=1;" parent="1" vertex="1">
                    <mxGeometry x="314" y="305" width="230" height="170" as="geometry"/>
                </mxCell>
                <mxCell id="37" value="" style="group" parent="1" vertex="1" connectable="0">
                    <mxGeometry x="690" y="227.5" width="330" height="320" as="geometry"/>
                </mxCell>
                <mxCell id="35" value="" style="rounded=0;whiteSpace=wrap;html=1;fillColor=none;" parent="37" vertex="1">
                    <mxGeometry width="330" height="320" as="geometry"/>
                </mxCell>
                <mxCell id="36" value="Logger" style="text;html=1;strokeColor=none;fillColor=none;align=center;verticalAlign=middle;whiteSpace=wrap;rounded=0;fontStyle=1" parent="37" vertex="1">
                    <mxGeometry x="250" y="278.71" width="76.8" height="35.56" as="geometry"/>
                </mxCell>
                <mxCell id="7" value="&lt;b&gt;ESP32&lt;/b&gt;" style="shape=ext;double=1;rounded=1;whiteSpace=wrap;html=1;" parent="37" vertex="1">
                    <mxGeometry x="30.004285714285714" y="61.935483870967744" width="94.28571428571428" height="216.7741935483871" as="geometry"/>
                </mxCell>
                <mxCell id="10" value="Sensors" style="rounded=0;whiteSpace=wrap;html=1;" parent="37" vertex="1">
                    <mxGeometry x="172.86" y="82.58" width="107.14" height="30.97" as="geometry"/>
                </mxCell>
                <mxCell id="9" value="" style="endArrow=classic;html=1;exitX=1;exitY=0.25;exitDx=0;exitDy=0;entryX=0;entryY=0.25;entryDx=0;entryDy=0;" parent="37" source="7" target="10" edge="1">
                    <mxGeometry width="50" height="50" relative="1" as="geometry">
                        <mxPoint x="133.57142857142856" y="123.87096774193549" as="sourcePoint"/>
                        <mxPoint x="227.85714285714286" y="116.64516129032258" as="targetPoint"/>
                    </mxGeometry>
                </mxCell>
                <mxCell id="20" value="DB" style="shape=datastore;whiteSpace=wrap;html=1;" parent="37" vertex="1">
                    <mxGeometry x="230" y="200" width="60" height="60" as="geometry"/>
                </mxCell>
                <mxCell id="22" value="" style="endArrow=classic;html=1;exitX=1;exitY=0.81;exitDx=0;exitDy=0;entryX=0;entryY=0.5;entryDx=0;entryDy=0;exitPerimeter=0;" parent="37" source="7" target="20" edge="1">
                    <mxGeometry width="50" height="50" relative="1" as="geometry">
                        <mxPoint x="120.00000000000023" y="180" as="sourcePoint"/>
                        <mxPoint x="230" y="180" as="targetPoint"/>
                    </mxGeometry>
                </mxCell>
                <mxCell id="23" value="" style="endArrow=classic;html=1;exitX=0;exitY=0.3;exitDx=0;exitDy=0;entryX=1;entryY=0.75;entryDx=0;entryDy=0;" parent="37" source="20" target="7" edge="1">
                    <mxGeometry width="50" height="50" relative="1" as="geometry">
                        <mxPoint x="90.00000000000023" y="220" as="sourcePoint"/>
                        <mxPoint x="60" y="280" as="targetPoint"/>
                    </mxGeometry>
                </mxCell>
                <mxCell id="41" value="" style="shape=actor;whiteSpace=wrap;html=1;" parent="1" vertex="1">
                    <mxGeometry x="120" y="360" width="40" height="60" as="geometry"/>
                </mxCell>
                <mxCell id="75" value="Device Config" style="rounded=0;whiteSpace=wrap;html=1;" parent="1" vertex="1">
                    <mxGeometry x="340" y="322.5" width="170" height="30" as="geometry"/>
                </mxCell>
                <mxCell id="76" value="Status" style="rounded=0;whiteSpace=wrap;html=1;" parent="1" vertex="1">
                    <mxGeometry x="340" y="372.5" width="170" height="30" as="geometry"/>
                </mxCell>
                <mxCell id="77" value="File Management" style="rounded=0;whiteSpace=wrap;html=1;" parent="1" vertex="1">
                    <mxGeometry x="340" y="420" width="170" height="30" as="geometry"/>
                </mxCell>
                <mxCell id="81" value="" style="shape=flexArrow;endArrow=classic;startArrow=classic;html=1;exitX=0.9;exitY=0.5;exitDx=0;exitDy=0;entryX=0;entryY=0.5;entryDx=0;entryDy=0;exitPerimeter=0;" parent="1" source="41" target="78" edge="1">
                    <mxGeometry width="100" height="100" relative="1" as="geometry">
                        <mxPoint x="240" y="390" as="sourcePoint"/>
                        <mxPoint x="340" y="290" as="targetPoint"/>
                    </mxGeometry>
                </mxCell>
                <mxCell id="82" value="Web App" style="endArrow=classic;startArrow=classic;html=1;exitX=1;exitY=0.5;exitDx=0;exitDy=0;entryX=0;entryY=0.5;entryDx=0;entryDy=0;" parent="1" source="78" target="35" edge="1">
                    <mxGeometry width="50" height="50" relative="1" as="geometry">
                        <mxPoint x="800" y="380" as="sourcePoint"/>
                        <mxPoint x="850" y="330" as="targetPoint"/>
                    </mxGeometry>
                </mxCell>
            </root>
        </mxGraphModel>
    </diagram>
</mxfile>